<svg width="40" height="40" viewBox="0 0 40 40" fill="none" xmlns="http://www.w3.org/2000/svg">
  <!-- Background Circle -->
  <circle cx="20" cy="20" r="20" fill="url(#gradient1)"/>
  
  <!-- Medical Cross -->
  <path d="M20 8L20 32M12 20L28 20" stroke="white" stroke-width="2.5" stroke-linecap="round"/>
  
  <!-- Location Pin -->
  <path d="M20 12C22.2091 12 24 13.7909 24 16C24 18.2091 22.2091 20 20 20C17.7909 20 16 18.2091 16 16C16 13.7909 17.7909 12 20 12Z" fill="white"/>
  <path d="M20 20L20 32" stroke="white" stroke-width="2" stroke-linecap="round"/>
  
  <!-- Pulse Lines -->
  <path d="M8 20L10 20" stroke="white" stroke-width="1.5" stroke-linecap="round" opacity="0.8"/>
  <path d="M30 20L32 20" stroke="white" stroke-width="1.5" stroke-linecap="round" opacity="0.8"/>
  <path d="M8 16L10 16" stroke="white" stroke-width="1.5" stroke-linecap="round" opacity="0.6"/>
  <path d="M30 16L32 16" stroke="white" stroke-width="1.5" stroke-linecap="round" opacity="0.6"/>
  <path d="M8 24L10 24" stroke="white" stroke-width="1.5" stroke-linecap="round" opacity="0.6"/>
  <path d="M30 24L32 24" stroke="white" stroke-width="1.5" stroke-linecap="round" opacity="0.6"/>
  
  <!-- Gradient Definition -->
  <defs>
    <linearGradient id="gradient1" x1="0%" y1="0%" x2="100%" y2="100%">
      <stop offset="0%" style="stop-color:#10B981;stop-opacity:1" />
      <stop offset="100%" style="stop-color:#3B82F6;stop-opacity:1" />
    </linearGradient>
  </defs>
</svg>
